# xmcd CD database file generated by OrangeCD 6.1
#
# Track frame offsets:
#	150
#	12889
#	26971
#	39717
#	57175
#	72478
#	86310
#	97416
#	112271
#	131201
#	142572
#	156354
#	167471
#	181689
#	199420
#	213266
#	226179
#	239871
#	255059
#	270477
#	283623
#	299061
#
# Disc length: 4262 seconds
#
# Revision: 2
# Processed by: cddbd v1.5.2PL0 Copyright (c) Steve Scherf et al.
# Submitted via: OrangeCD 6.1
#
DISCID=4810a416
DTITLE=Patty Loveless - The Definitive Collection
DYEAR=2005
DGENRE=Country
TTITLE0=Lonely Days, Lonely Nights
TTITLE1=Wicked Ways
TTITLE2=I Did
TTITLE3=After All
TTITLE4=You Saved Me
TTITLE5=If My Heart Had Windows
TTITLE6=A Little Bit In Love
TTITLE7=Blue Side Of Town
TTITLE8=Don't Toss Us Away
TTITLE9=Timber, I'm Falling In Love
TTITLE10=The Lonely Side Of Love
TTITLE11=Chains
TTITLE12=On Down The Line
TTITLE13=The Night's Too Long
TTITLE14=I'm That Kind Of Girl
TTITLE15=Blue Memories
TTITLE16=Hurt Me Bad (In A Real Good Way)
TTITLE17=Jealous Bone
TTITLE18=Can't Stop Myself From Loving You
TTITLE19=Nobody Loves You Like I Do
TTITLE20=You Can Feel Bad
TTITLE21=Lonely Too Long
EXTD=
EXTT0=
EXTT1=
EXTT2=
EXTT3=
EXTT4=
EXTT5=
EXTT6=
EXTT7=
EXTT8=
EXTT9=
EXTT10=
EXTT11=
EXTT12=
EXTT13=
EXTT14=
EXTT15=
EXTT16=
EXTT17=
EXTT18=
EXTT19=
EXTT20=
EXTT21=
PLAYORDER=
